<svg xmlns="http://www.w3.org/2000/svg" xmlns:xlink="http://www.w3.org/1999/xlink" width="1350" zoomAndPan="magnify" viewBox="0 0 1012.5 235.499993" height="314" preserveAspectRatio="xMidYMid meet" version="1.0"><defs><clipPath id="4f0d63f776"><path d="M 0.824219 0 L 1011.179688 0 L 1011.179688 235 L 0.824219 235 Z M 0.824219 0 " clip-rule="nonzero"/></clipPath><clipPath id="89d9d82880"><path d="M 4.492188 69.710938 C 28.453125 72.40625 30.773438 73.007812 33.695312 73.753906 C 36.613281 74.503906 39.535156 75.175781 42.304688 76.300781 C 45 77.425781 47.621094 78.996094 50.09375 80.644531 C 52.640625 82.367188 55.109375 84.164062 57.355469 86.410156 C 59.753906 88.804688 61.398438 91.050781 64.019531 94.722656 C 68.664062 101.160156 75.925781 114.1875 81.691406 122.425781 C 86.632812 129.464844 91.949219 136.351562 96.292969 141.445312 C 99.511719 145.1875 101.683594 147.511719 105.054688 150.65625 C 109.097656 154.472656 114.5625 159.191406 119.207031 162.335938 C 123.175781 165.03125 126.394531 166.527344 130.8125 168.773438 C 136.351562 171.546875 144.289062 175.140625 149.980469 177.460938 C 154.398438 179.257812 157.09375 180.230469 161.886719 181.730469 C 168.847656 183.902344 179.183594 186.671875 188.09375 188.394531 C 197.152344 190.117188 206.886719 191.613281 215.796875 192.136719 C 224.035156 192.660156 231.746094 192.511719 239.683594 191.835938 C 247.621094 191.164062 253.3125 190.117188 263.269531 187.945312 C 281.167969 184.125 315.160156 173.71875 337.476562 168.25 C 355.671875 163.832031 373.789062 159.265625 387.34375 157.09375 C 396.480469 155.597656 402.84375 155.148438 410.480469 154.699219 C 417.96875 154.25 426.730469 154.023438 432.871094 154.25 C 437.210938 154.398438 440.355469 154.773438 443.953125 155.148438 C 447.394531 155.523438 450.617188 155.671875 453.984375 156.34375 C 457.578125 157.019531 460.5 157.84375 464.992188 159.191406 C 472.40625 161.4375 485.210938 165.855469 493.894531 169.375 C 501.234375 172.371094 505.949219 174.617188 513.8125 178.507812 C 525.71875 184.351562 546.160156 195.65625 558.066406 201.570312 C 566.003906 205.539062 571.09375 208.160156 578.058594 211.007812 C 585.246094 213.925781 591.984375 216.398438 600.597656 218.792969 C 611.828125 221.9375 627.179688 224.785156 639.90625 227.105469 C 651.886719 229.277344 663.792969 231.148438 674.800781 232.421875 C 684.683594 233.621094 693.894531 234.59375 703.105469 234.816406 C 711.863281 234.96875 720.175781 234.667969 728.863281 233.695312 C 737.921875 232.644531 747.882812 230.550781 756.417969 228.601562 C 763.980469 226.878906 769.296875 225.457031 777.457031 222.761719 C 789.363281 218.792969 807.183594 211.90625 820.589844 205.988281 C 832.644531 200.671875 844.398438 194.832031 854.359375 189.140625 C 862.820312 184.273438 869.410156 179.558594 876.972656 174.390625 C 884.832031 169 889.625 165.628906 900.632812 157.242188 C 927.738281 136.652344 1008.082031 72.03125 1038.933594 47.023438 C 1054.582031 34.292969 1068.058594 24.933594 1074.125 17.894531 C 1076.894531 14.675781 1077.792969 14.003906 1078.917969 9.957031 C 1081.613281 0.449219 1077.046875 -33.546875 1079.816406 -41.40625 C 1080.789062 -44.101562 1081.988281 -45.152344 1083.558594 -46.273438 C 1085.132812 -47.398438 1087.828125 -47.847656 1089.476562 -47.921875 C 1090.671875 -47.921875 1091.421875 -47.773438 1092.46875 -47.246094 C 1093.96875 -46.5 1096.214844 -44.925781 1097.1875 -43.28125 C 1098.160156 -41.632812 1098.761719 -39.234375 1098.535156 -37.289062 C 1098.3125 -35.34375 1096.960938 -32.945312 1095.914062 -31.671875 C 1095.164062 -30.773438 1094.492188 -30.25 1093.445312 -29.800781 C 1091.945312 -29.128906 1089.324219 -28.527344 1087.378906 -28.828125 C 1085.507812 -29.128906 1083.335938 -30.25 1081.988281 -31.671875 C 1080.640625 -33.097656 1079.589844 -35.34375 1079.367188 -37.289062 C 1079.140625 -39.234375 1079.964844 -41.78125 1080.714844 -43.28125 C 1081.238281 -44.328125 1081.761719 -44.925781 1082.734375 -45.601562 C 1084.082031 -46.574219 1086.480469 -47.847656 1088.425781 -47.921875 C 1090.375 -47.996094 1092.769531 -47.398438 1094.34375 -46.273438 C 1095.988281 -45.152344 1097.414062 -42.90625 1098.085938 -41.40625 C 1098.535156 -40.359375 1098.460938 -39.984375 1098.535156 -38.335938 C 1098.910156 -31.824219 1099.359375 -0.597656 1097.261719 10.558594 C 1096.0625 16.699219 1094.417969 20.589844 1092.246094 24.335938 C 1090.449219 27.40625 1089.773438 28.078125 1085.882812 31.898438 C 1067.386719 49.945312 942.5625 147.882812 911.039062 171.996094 C 899.660156 180.679688 895.390625 183.75 887.378906 189.292969 C 879.367188 194.832031 872.105469 200 863.042969 205.242188 C 852.410156 211.378906 839.90625 217.519531 827.101562 223.136719 C 813.101562 229.277344 794.457031 236.316406 782.175781 240.285156 C 773.9375 242.980469 768.847656 244.101562 761.136719 245.898438 C 751.925781 247.996094 740.617188 250.617188 730.507812 251.816406 C 720.851562 252.9375 711.339844 253.085938 701.757812 252.9375 C 692.097656 252.789062 683.785156 251.964844 672.628906 250.691406 C 657.277344 248.96875 633.542969 245.601562 618.34375 242.605469 C 607.109375 240.359375 597.902344 238.113281 589.289062 235.492188 C 582.175781 233.320312 578.433594 232.046875 570.269531 228.453125 C 554.398438 221.5625 519.429688 202.320312 501.90625 194.007812 C 491.199219 188.917969 483.9375 185.546875 475.699219 182.402344 C 468.585938 179.707031 461.996094 177.535156 455.40625 175.964844 C 449.34375 174.539062 443.726562 173.71875 437.585938 173.191406 C 431.222656 172.667969 424.558594 172.667969 417.820312 172.894531 C 410.707031 173.117188 401.945312 173.792969 395.878906 174.464844 C 391.535156 174.914062 389.738281 175.140625 384.796875 176.113281 C 374.316406 178.136719 354.324219 183.003906 336.425781 187.417969 C 313.964844 192.960938 275.476562 203.96875 260.800781 207.1875 C 254.808594 208.460938 252.488281 208.835938 248.070312 209.433594 C 243.429688 210.03125 239.160156 210.632812 233.617188 210.78125 C 226.132812 211.007812 216.320312 210.632812 207.261719 209.734375 C 197.527344 208.761719 185.246094 206.589844 177.011719 205.015625 C 171.246094 203.894531 167.875 203.21875 162.410156 201.648438 C 155.070312 199.550781 143.617188 195.507812 137.101562 192.886719 C 132.832031 191.164062 130.738281 190.039062 126.769531 188.019531 C 121.300781 185.25 112.167969 180.605469 107.375 177.460938 C 104.304688 175.4375 103.105469 174.167969 100.335938 171.769531 C 96.066406 168.175781 88.582031 161.660156 84.613281 157.542969 C 81.917969 154.699219 80.71875 153.050781 78.320312 149.980469 C 74.726562 145.339844 69.710938 138.972656 65.292969 132.382812 C 60.050781 124.597656 53.988281 112.46875 49.121094 106.027344 C 45.972656 101.835938 43.429688 98.839844 40.285156 96.367188 C 37.511719 94.195312 34.519531 92.699219 31.523438 91.5 C 28.601562 90.378906 26.132812 89.855469 22.539062 89.253906 C 17.222656 88.355469 7.1875 88.582031 2.695312 87.234375 C 0.148438 86.484375 -1.574219 85.660156 -2.847656 84.386719 C -3.894531 83.339844 -4.566406 82.140625 -4.867188 80.71875 C -5.242188 78.996094 -4.941406 76.152344 -4.269531 74.503906 C -3.667969 73.15625 -2.769531 72.03125 -1.5 71.285156 C 0 70.308594 4.492188 69.710938 4.492188 69.710938 " clip-rule="nonzero"/></clipPath><clipPath id="8853a520a3"><path d="M 0.824219 79 L 1011.179688 79 L 1011.179688 235 L 0.824219 235 Z M 0.824219 79 " clip-rule="nonzero"/></clipPath><clipPath id="ef981e178e"><path d="M 9.882812 87.832031 C 10.558594 95.171875 14.078125 101.757812 15.347656 109.472656 C 17.519531 122.5 18.046875 152.003906 17.445312 163.085938 C 17.148438 168.101562 16.023438 170.421875 15.796875 173.867188 C 15.648438 177.085938 16.472656 179.933594 16.171875 183.152344 C 15.796875 186.746094 14.152344 189.964844 13.402344 194.382812 C 12.355469 200.449219 10.933594 210.707031 11.007812 216.472656 C 11.007812 220.214844 10.480469 224.484375 12.128906 225.609375 C 13.777344 226.65625 16.996094 223.660156 20.664062 223.136719 C 26.957031 222.238281 39.609375 222.6875 46.796875 223.0625 C 51.890625 223.359375 55.785156 224.410156 59.753906 224.558594 C 63.046875 224.710938 65.742188 223.960938 68.8125 224.335938 C 72.03125 224.710938 75.402344 226.730469 78.621094 227.03125 C 81.617188 227.253906 84.3125 226.132812 87.308594 226.207031 C 90.453125 226.28125 92.699219 227.253906 96.890625 227.480469 C 104.976562 227.929688 119.429688 227.554688 132.609375 226.804688 C 149.082031 225.90625 170.496094 222.460938 188.019531 221.789062 C 203.667969 221.191406 223.0625 221.5625 232.644531 222.386719 C 237.289062 222.761719 237.8125 223.511719 242.828125 223.960938 C 257.128906 225.160156 296.742188 225.234375 325.496094 225.007812 C 357.019531 224.785156 399.625 222.761719 424.410156 222.460938 C 439.308594 222.238281 450.390625 222.3125 460.273438 222.460938 C 467.164062 222.613281 472.703125 222.613281 477.871094 223.0625 C 481.988281 223.4375 485.433594 224.558594 488.953125 224.632812 C 492.097656 224.710938 494.792969 223.585938 497.9375 223.660156 C 501.382812 223.734375 504.527344 225.007812 508.722656 225.382812 C 514.5625 225.832031 524.519531 224.335938 529.910156 225.53125 C 533.429688 226.355469 534.777344 228.976562 538.296875 229.5 C 543.539062 230.324219 553.273438 227.179688 558.664062 226.804688 C 562.183594 226.582031 564.429688 227.03125 567.425781 226.804688 C 570.570312 226.582031 575.136719 223.960938 576.933594 225.53125 C 579.40625 227.777344 579.554688 241.183594 576.335938 243.804688 C 572.742188 246.722656 560.535156 240.734375 554.398438 239.984375 C 549.980469 239.460938 546.910156 239.835938 543.015625 239.308594 C 538.898438 238.710938 532.980469 239.011719 530.511719 236.464844 C 528.039062 233.917969 527.441406 227.777344 528.113281 224.109375 C 528.789062 220.742188 531.632812 217.59375 533.878906 215.199219 C 535.902344 213.027344 538.449219 210.78125 540.84375 210.03125 C 542.941406 209.359375 545.636719 209.808594 547.28125 210.109375 C 548.332031 210.332031 548.855469 210.480469 549.753906 211.007812 C 550.953125 211.753906 552.75 213.328125 553.574219 214.375 C 554.171875 215.125 554.472656 215.722656 554.769531 216.621094 C 555.21875 217.96875 555.59375 219.992188 555.445312 221.640625 C 555.296875 223.285156 554.320312 225.234375 553.648438 226.429688 C 553.125 227.253906 552.597656 227.777344 552 228.304688 C 551.402344 228.902344 550.800781 229.351562 549.902344 229.800781 C 548.632812 230.398438 546.910156 231.222656 544.960938 231.074219 C 541.964844 230.847656 538.371094 228.601562 534.03125 226.28125 C 526.839844 222.460938 515.835938 214.152344 506.699219 209.132812 C 498.089844 204.417969 487.304688 200.296875 480.941406 196.929688 C 477.046875 194.832031 475.773438 193.109375 471.65625 191.464844 C 464.992188 188.765625 450.914062 186.222656 443.652344 184.949219 C 439.160156 184.199219 437.0625 183.601562 432.570312 183.675781 C 425.457031 183.824219 417.894531 185.25 405.089844 187.792969 C 374.238281 193.933594 275.324219 222.386719 249.195312 226.582031 C 240.582031 228.003906 238.1875 227.703125 231.820312 227.929688 C 223.960938 228.226562 215.199219 228.828125 205.539062 227.929688 C 193.484375 226.804688 173.417969 223.285156 165.179688 220.515625 C 161.285156 219.242188 160.613281 217.96875 156.945312 216.398438 C 150.128906 213.550781 134.855469 209.957031 126.917969 205.914062 C 121.003906 202.917969 117.035156 198.578125 112.617188 195.957031 C 109.171875 193.933594 106.476562 193.183594 102.957031 191.164062 C 98.238281 188.46875 91.277344 183.902344 87.082031 180.753906 C 84.085938 178.507812 82.664062 177.011719 79.746094 174.390625 C 75.328125 170.496094 67.6875 163.683594 63.347656 159.339844 C 60.277344 156.269531 58.179688 154.472656 55.859375 151.027344 C 52.863281 146.6875 51.289062 140.472656 47.546875 134.855469 C 42.679688 127.59375 32.722656 116.882812 27.855469 111.792969 C 25.234375 109.023438 24.035156 107.375 21.488281 105.800781 C 18.644531 104.003906 12.054688 101.234375 11.230469 101.910156 C 10.855469 102.207031 11.980469 103.78125 11.679688 104.082031 C 11.382812 104.378906 10.109375 103.855469 9.210938 103.480469 C 7.9375 102.957031 6.140625 101.835938 5.015625 100.636719 C 3.894531 99.4375 2.996094 97.714844 2.546875 96.144531 C 2.097656 94.570312 2.246094 92.472656 2.46875 91.125 C 2.621094 90.152344 2.84375 89.554688 3.367188 88.65625 C 4.042969 87.457031 5.316406 85.808594 6.664062 84.835938 C 8.011719 83.863281 9.359375 83.191406 11.382812 82.964844 C 14.675781 82.589844 20.890625 84.238281 24.785156 85.285156 C 27.929688 86.109375 30.625 86.933594 33.171875 88.28125 C 35.714844 89.628906 37.664062 91.125 40.132812 93.523438 C 43.726562 97.042969 50.917969 103.78125 51.589844 108.421875 C 52.113281 111.867188 49.792969 115.910156 47.773438 118.308594 C 45.898438 120.480469 43.429688 121.675781 40.285156 122.574219 C 35.792969 123.921875 27.929688 124.371094 22.835938 123.472656 C 18.644531 122.726562 11.679688 119.878906 11.832031 118.832031 C 11.980469 117.707031 22.914062 119.429688 25.082031 117.183594 C 26.878906 115.3125 24.632812 108.273438 25.757812 107.898438 C 26.957031 107.523438 29.578125 113.816406 32.273438 115.761719 C 34.96875 117.707031 39.160156 117.632812 41.78125 119.582031 C 44.402344 121.527344 47.847656 124.671875 48.070312 127.59375 C 48.371094 130.585938 45.226562 134.78125 42.980469 137.25 C 40.957031 139.496094 38.335938 140.996094 35.640625 142.117188 C 32.945312 143.316406 27.179688 144.8125 26.804688 144.140625 C 26.507812 143.617188 30.324219 140.246094 30.476562 140.320312 C 30.550781 140.394531 29.800781 141.746094 29.128906 142.492188 C 28.226562 143.542969 26.582031 144.964844 25.082031 145.636719 C 23.585938 146.3125 21.488281 146.460938 20.066406 146.460938 C 19.09375 146.460938 18.417969 146.3125 17.519531 145.9375 C 16.246094 145.414062 14.375 144.515625 13.253906 143.316406 C 12.128906 142.117188 11.082031 140.472656 10.632812 138.898438 C 10.183594 137.328125 10.183594 135.15625 10.40625 133.808594 C 10.558594 132.832031 10.480469 132.160156 11.230469 131.410156 C 13.101562 129.539062 21.039062 126.695312 25.53125 126.394531 C 29.425781 126.167969 32.945312 128.191406 36.613281 128.789062 C 40.058594 129.3125 44.175781 129.015625 46.796875 129.839844 C 48.671875 130.4375 50.09375 131.1875 51.289062 132.308594 C 52.488281 133.433594 53.539062 135.003906 54.0625 136.578125 C 54.585938 138.148438 54.808594 139.945312 54.585938 141.59375 C 54.359375 143.242188 53.6875 144.964844 52.714844 146.3125 C 51.738281 147.660156 50.316406 148.859375 48.820312 149.605469 C 47.324219 150.355469 44.027344 151.105469 43.878906 150.730469 C 43.578125 150.128906 53.6875 142.867188 54.0625 143.242188 C 54.359375 143.542969 50.691406 148.257812 48.59375 150.28125 C 46.574219 152.300781 44.625 153.800781 41.632812 155.371094 C 37.289062 157.691406 26.507812 163.535156 24.558594 161.738281 C 22.761719 160.089844 30.101562 150.128906 28.828125 146.6875 C 27.855469 144.066406 21.039062 142.492188 21.339844 141.667969 C 21.789062 140.472656 36.539062 143.839844 42.082031 144.214844 C 45.75 144.441406 48.070312 143.542969 51.289062 144.214844 C 55.109375 144.964844 59.226562 146.6875 63.269531 149.230469 C 68.214844 152.375 74.429688 158.667969 78.246094 162.484375 C 80.792969 165.03125 81.992188 167.277344 84.3125 169.375 C 86.78125 171.621094 89.03125 173.191406 92.625 175.363281 C 98.464844 178.882812 109.394531 183.902344 116.808594 187.34375 C 122.949219 190.191406 129.3125 192.4375 133.957031 194.757812 C 137.324219 196.480469 139.570312 198.652344 142.492188 199.699219 C 145.261719 200.671875 147.660156 200.222656 151.027344 201.046875 C 156.269531 202.394531 165.179688 204.492188 170.722656 207.863281 C 175.738281 210.855469 182.328125 215.425781 183.226562 219.542969 C 183.976562 222.910156 181.355469 227.929688 178.957031 230.023438 C 176.863281 231.824219 174.765625 231.671875 170.570312 232.195312 C 158.515625 233.769531 112.464844 233.394531 99.8125 232.273438 C 95.09375 231.824219 93.972656 230.773438 90.226562 230.550781 C 85.210938 230.25 78.847656 231.597656 72.257812 231.671875 C 64.320312 231.746094 55.109375 230.625 45.972656 230.398438 C 36.015625 230.175781 20.664062 231.074219 14.75 230.398438 C 12.355469 230.101562 11.230469 229.949219 9.808594 229.203125 C 8.3125 228.453125 6.964844 227.179688 5.988281 225.832031 C 5.089844 224.484375 4.417969 222.761719 4.191406 221.113281 C 3.96875 219.46875 4.191406 217.59375 4.792969 216.097656 C 5.390625 214.527344 6.4375 213.027344 7.710938 211.90625 C 8.910156 210.78125 10.855469 209.957031 12.203125 209.507812 C 13.179688 209.210938 14.675781 208.984375 14.75 209.210938 C 14.898438 209.660156 6.964844 214 6.886719 213.851562 C 6.8125 213.703125 12.203125 209.210938 15.273438 207.710938 C 18.34375 206.214844 21.5625 205.839844 25.457031 205.015625 C 30.625 203.96875 37.664062 203.070312 43.804688 202.394531 C 50.019531 201.722656 55.183594 201.347656 62.449219 201.121094 C 72.480469 200.824219 88.207031 200.523438 98.539062 201.199219 C 106.402344 201.722656 116.136719 204.417969 119.128906 203.894531 C 120.027344 203.742188 120.179688 203.144531 120.777344 203.070312 C 121.527344 202.917969 122.425781 203.070312 123.324219 203.367188 C 124.597656 203.742188 126.691406 204.867188 127.742188 205.691406 C 128.488281 206.289062 128.9375 206.964844 129.390625 207.636719 C 129.839844 208.3125 130.289062 208.984375 130.585938 209.882812 C 130.960938 211.15625 131.261719 213.476562 131.1875 214.824219 C 131.109375 215.796875 130.960938 216.398438 130.585938 217.296875 C 130.0625 218.570312 128.9375 220.367188 127.742188 221.488281 C 126.542969 222.539062 124.597656 223.4375 123.25 223.808594 C 122.273438 224.109375 121.75 224.410156 120.703125 224.109375 C 118.457031 223.359375 111.644531 215.425781 111.34375 215.722656 C 111.042969 215.949219 117.109375 221.640625 116.359375 222.835938 C 115.011719 224.933594 98.839844 218.945312 89.03125 217.671875 C 77.796875 216.246094 63.945312 215.648438 52.640625 215.273438 C 42.828125 214.976562 32.945312 214.824219 25.082031 215.273438 C 19.167969 215.648438 12.503906 216.996094 9.507812 217.144531 C 8.3125 217.222656 7.9375 217.296875 6.964844 217.070312 C 5.617188 216.773438 3.445312 215.949219 2.320312 215.199219 C 1.496094 214.675781 1.046875 214.226562 0.449219 213.476562 C -0.375 212.355469 -1.421875 210.558594 -1.796875 208.984375 C -2.171875 207.414062 -2.097656 205.539062 -1.648438 203.96875 C -1.199219 202.394531 -0.375 200.746094 0.75 199.550781 C 1.871094 198.351562 2.917969 197.753906 4.941406 196.78125 C 9.132812 194.757812 17.746094 191.6875 25.832031 190.039062 C 36.390625 187.945312 52.789062 187.417969 63.347656 186.96875 C 70.984375 186.597656 77.5 186.445312 83.1875 186.820312 C 87.53125 187.121094 94.421875 188.917969 94.570312 188.542969 C 94.644531 188.394531 92.472656 187.570312 92.472656 187.496094 C 92.472656 187.417969 95.84375 188.316406 97.191406 189.21875 C 98.539062 190.117188 99.8125 191.464844 100.5625 192.886719 C 101.308594 194.308594 101.683594 196.40625 101.832031 197.753906 C 101.910156 198.726562 101.757812 199.398438 101.609375 200.222656 C 101.460938 201.046875 101.234375 201.796875 100.710938 202.621094 C 100.035156 203.816406 98.839844 205.464844 97.492188 206.4375 C 96.144531 207.414062 95.09375 208.011719 92.773438 208.3125 C 86.78125 209.132812 71.582031 205.390625 59.675781 204.640625 C 45.898438 203.816406 20.515625 204.417969 14.75 204.042969 C 13.402344 203.96875 13.101562 204.042969 12.203125 203.742188 C 10.933594 203.292969 8.984375 202.46875 7.785156 201.347656 C 6.589844 200.296875 5.464844 198.425781 4.941406 197.230469 C 4.566406 196.332031 4.417969 195.804688 4.34375 194.832031 C 4.265625 193.484375 4.492188 191.089844 4.941406 189.816406 C 5.242188 188.917969 5.539062 188.394531 6.140625 187.644531 C 6.964844 186.597656 8.085938 185.25 9.882812 184.273438 C 13.027344 182.550781 19.992188 181.128906 24.261719 180.230469 C 27.554688 179.484375 29.726562 179.183594 33.171875 178.808594 C 38.039062 178.285156 44.402344 177.910156 50.765625 177.6875 C 58.253906 177.460938 70.308594 176.5625 75.101562 177.761719 C 77.273438 178.285156 78.472656 179.257812 79.519531 180.082031 C 80.269531 180.679688 80.71875 181.355469 81.167969 182.027344 C 81.617188 182.703125 82.066406 183.300781 82.367188 184.199219 C 82.816406 185.472656 83.039062 187.867188 82.964844 189.21875 C 82.890625 190.191406 82.738281 190.714844 82.367188 191.613281 C 81.839844 192.8125 80.71875 194.683594 79.519531 195.730469 C 78.320312 196.78125 76.375 197.679688 75.101562 198.050781 C 74.203125 198.351562 73.753906 198.425781 72.554688 198.351562 C 69.1875 198.203125 60.277344 195.433594 54.136719 194.609375 C 48.222656 193.785156 42.304688 193.558594 36.390625 193.335938 C 30.476562 193.109375 23.585938 195.28125 18.496094 193.410156 C 13.777344 191.6875 7.863281 186.894531 6.738281 183.300781 C 5.914062 180.605469 7.414062 177.085938 8.910156 174.765625 C 10.40625 172.445312 13.328125 170.648438 15.875 169.222656 C 18.496094 167.726562 21.339844 166.902344 24.410156 166.003906 C 27.855469 165.03125 32.046875 164.28125 35.640625 163.90625 C 39.011719 163.535156 41.855469 163.535156 45.375 163.683594 C 49.492188 163.90625 54.808594 164.433594 58.703125 165.332031 C 61.847656 166.078125 67.015625 168.476562 67.164062 168.175781 C 67.316406 167.953125 62.296875 165.253906 62.449219 164.957031 C 62.523438 164.730469 64.019531 165.03125 64.917969 165.332031 C 66.191406 165.78125 68.214844 166.976562 69.261719 167.875 C 70.011719 168.476562 70.386719 169.148438 70.835938 169.824219 C 71.285156 170.570312 71.734375 171.171875 71.957031 172.144531 C 72.332031 173.492188 72.632812 175.589844 72.332031 177.160156 C 72.03125 178.734375 71.058594 180.605469 70.308594 181.730469 C 69.785156 182.550781 69.335938 183 68.511719 183.601562 C 67.390625 184.425781 65.367188 185.398438 64.019531 185.699219 C 63.046875 185.921875 62.746094 185.921875 61.472656 185.847656 C 57.878906 185.699219 46.125 183.824219 40.660156 182.628906 C 37.0625 181.804688 35.417969 180.90625 31.746094 180.007812 C 26.058594 178.660156 15.5 177.835938 9.808594 176.039062 C 5.914062 174.839844 2.171875 174.316406 0.449219 171.84375 C -1.347656 169.148438 -0.300781 164.507812 -0.0742188 159.941406 C 0.222656 153.648438 1.421875 142.117188 2.84375 137.625 C 3.519531 135.527344 4.34375 134.257812 5.167969 133.207031 C 5.765625 132.460938 6.289062 132.085938 7.113281 131.5625 C 8.3125 130.886719 10.480469 129.988281 11.832031 129.761719 C 12.804688 129.613281 13.550781 129.6875 14.375 129.839844 C 15.199219 129.988281 15.949219 130.0625 16.847656 130.4375 C 18.046875 131.035156 19.917969 132.382812 20.890625 133.359375 C 21.5625 134.03125 21.9375 134.554688 22.3125 135.453125 C 22.835938 136.726562 23.8125 140.246094 23.511719 140.320312 C 23.136719 140.472656 18.71875 133.132812 19.019531 132.910156 C 19.316406 132.683594 23.886719 137.25 26.507812 140.246094 C 30.027344 144.289062 33.621094 150.429688 37.738281 155.296875 C 42.007812 160.390625 46.722656 165.78125 51.816406 170.121094 C 56.832031 174.464844 62.449219 178.136719 68.136719 181.429688 C 73.828125 184.648438 78.769531 186.96875 85.960938 189.667969 C 96.144531 193.484375 111.117188 197.679688 123.847656 200.746094 C 136.503906 203.816406 148.183594 205.914062 162.261719 208.234375 C 179.332031 211.082031 203.667969 214.675781 219.242188 215.875 C 230.023438 216.695312 239.757812 215.722656 246.796875 216.398438 C 251.214844 216.847656 253.460938 218.042969 257.503906 218.269531 C 262.746094 218.570312 269.335938 217.746094 275.476562 216.996094 C 282.140625 216.171875 290.375 214.824219 295.992188 213.253906 C 300.109375 212.054688 302.132812 210.632812 306.476562 209.210938 C 313.4375 206.886719 325.570312 203.367188 333.878906 201.496094 C 340.695312 200 345.039062 199.847656 352.75 198.351562 C 365.03125 195.957031 386.667969 190.414062 400.371094 187.71875 C 410.707031 185.699219 420.964844 183.976562 427.628906 183.152344 C 431.445312 182.703125 433.691406 182.550781 436.6875 182.476562 C 439.683594 182.402344 442.003906 182.179688 445.523438 182.628906 C 450.988281 183.300781 457.652344 184.800781 465.964844 187.195312 C 479.667969 191.164062 509.320312 202.46875 519.355469 206.289062 C 523.320312 207.785156 524.820312 208.160156 527.589844 209.582031 C 530.734375 211.15625 535.453125 212.503906 537.175781 215.648438 C 539.269531 219.46875 539.195312 228.601562 536.949219 232.046875 C 535.152344 234.816406 531.257812 235.339844 527.441406 236.464844 C 522.273438 237.960938 516.058594 238.261719 508.195312 239.011719 C 495.691406 240.132812 477.046875 240.65625 459.449219 241.40625 C 438.710938 242.304688 414 243.355469 391.535156 243.953125 C 369.371094 244.550781 335.378906 245.523438 325.496094 245.152344 C 322.648438 245.074219 321.601562 245.152344 319.953125 244.625 C 318.382812 244.175781 316.882812 243.429688 315.761719 242.457031 C 314.636719 241.480469 313.664062 240.058594 313.140625 238.636719 C 312.617188 237.214844 312.390625 235.492188 312.539062 233.992188 C 312.691406 232.496094 313.515625 230.699219 314.1875 229.574219 C 314.636719 228.828125 314.9375 228.304688 315.761719 227.777344 C 317.109375 226.804688 320.101562 226.507812 322.199219 225.308594 C 324.671875 223.886719 326.394531 221.191406 329.613281 219.394531 C 334.253906 216.773438 341.21875 214.601562 348.183594 212.578125 C 356.71875 210.109375 366.828125 208.011719 377.234375 206.140625 C 389.066406 204.042969 402.992188 202.246094 415.574219 200.898438 C 427.703125 199.625 443.277344 198.5 451.289062 198.203125 C 455.332031 198.050781 457.203125 198.050781 460.351562 198.203125 C 463.867188 198.425781 467.914062 198.578125 471.355469 199.476562 C 474.578125 200.375 477.421875 201.945312 480.34375 203.445312 C 483.335938 204.941406 485.734375 206.964844 489.027344 208.535156 C 493.070312 210.40625 499.808594 211.828125 502.878906 213.703125 C 504.675781 214.75 505.726562 215.722656 506.625 217.070312 C 507.523438 218.417969 508.121094 220.367188 508.347656 221.714844 C 508.496094 222.6875 508.496094 223.285156 508.347656 224.257812 C 508.121094 225.609375 507.449219 227.554688 506.550781 228.902344 C 505.574219 230.25 503.929688 231.523438 502.730469 232.195312 C 501.90625 232.722656 501.382812 232.945312 500.410156 233.09375 C 499.0625 233.320312 496.214844 234.144531 495.394531 233.019531 C 493.671875 230.773438 498.3125 213.925781 500.410156 212.804688 C 501.15625 212.429688 501.980469 213.179688 502.804688 213.703125 C 503.929688 214.449219 505.574219 215.722656 506.472656 217.070312 C 507.375 218.417969 508.121094 220.140625 508.273438 221.789062 C 508.421875 223.359375 508.046875 225.457031 507.597656 226.730469 C 507.296875 227.628906 506.847656 228.226562 506.398438 228.902344 C 505.949219 229.574219 505.5 230.175781 504.753906 230.773438 C 503.703125 231.597656 501.90625 232.722656 500.335938 233.09375 C 498.761719 233.46875 496.964844 233.769531 495.316406 233.019531 C 492.773438 231.898438 487.753906 224.484375 487.753906 224.484375 C 487.753906 224.484375 494.941406 230.101562 494.121094 231.972656 C 491.648438 237.4375 434.589844 232.871094 414.148438 233.917969 C 401.347656 234.59375 387.417969 237.0625 383 236.464844 C 381.726562 236.316406 381.503906 236.089844 380.679688 235.640625 C 379.554688 234.96875 377.835938 233.394531 377.011719 232.347656 C 376.410156 231.597656 376.113281 231.074219 375.8125 230.175781 C 375.363281 228.902344 374.988281 226.878906 375.136719 225.308594 C 375.289062 223.734375 376.1875 221.789062 376.859375 220.664062 C 377.386719 219.84375 377.910156 219.316406 378.507812 218.792969 C 379.105469 218.195312 379.707031 217.671875 380.605469 217.296875 C 381.800781 216.695312 383 216.398438 385.398438 216.097656 C 392.0625 215.273438 409.65625 216.023438 424.035156 216.472656 C 442.078125 217.070312 468.4375 218.492188 485.132812 219.765625 C 496.742188 220.664062 507.671875 222.386719 514.710938 222.761719 C 518.53125 222.988281 519.652344 222.539062 523.695312 222.835938 C 532.308594 223.511719 549.082031 226.730469 563.980469 228.601562 C 582.476562 230.925781 605.914062 233.394531 626.203125 235.265625 C 645.523438 236.988281 664.992188 238.785156 682.8125 239.460938 C 698.6875 240.058594 716.28125 239.757812 727.964844 239.386719 C 735.375 239.160156 739.34375 239.234375 746.007812 238.1875 C 754.621094 236.839844 764.878906 233.542969 775.0625 230.699219 C 786.445312 227.480469 799.621094 223.886719 810.929688 219.691406 C 821.410156 215.722656 831.070312 211.15625 840.730469 206.4375 C 850.164062 201.796875 860.125 196.253906 868.136719 191.613281 C 874.648438 187.867188 879.515625 185.097656 885.507812 181.054688 C 892.472656 176.335938 898.160156 171.769531 907.445312 164.582031 C 923.84375 151.925781 955.59375 125.496094 974.988281 110.820312 C 989.136719 100.113281 1005.613281 86.785156 1012.5 83.9375 C 1014.746094 82.964844 1015.796875 82.964844 1017.441406 83.113281 C 1019.089844 83.265625 1021.035156 84.011719 1022.234375 84.6875 C 1023.058594 85.136719 1023.582031 85.585938 1024.179688 86.335938 C 1025.078125 87.382812 1026.203125 89.105469 1026.652344 90.675781 C 1027.101562 92.25 1027.101562 94.046875 1026.800781 95.621094 C 1026.503906 97.191406 1025.753906 98.914062 1024.707031 100.1875 C 1023.65625 101.460938 1022.011719 103.554688 1020.664062 103.183594 C 1017.890625 102.433594 1011.078125 86.335938 1012.425781 83.863281 C 1013.097656 82.664062 1015.71875 82.964844 1017.367188 83.113281 C 1018.941406 83.265625 1020.738281 83.863281 1022.085938 84.6875 C 1023.433594 85.585938 1024.707031 86.859375 1025.527344 88.28125 C 1026.351562 89.703125 1026.878906 91.425781 1026.953125 93.074219 C 1027.027344 94.722656 1026.578125 96.519531 1025.902344 98.015625 C 1025.230469 99.4375 1023.808594 100.9375 1022.757812 101.835938 C 1022.011719 102.433594 1020.664062 103.257812 1020.511719 103.105469 C 1020.210938 102.808594 1026.425781 95.171875 1026.800781 95.394531 C 1027.175781 95.621094 1024.855469 100.859375 1023.132812 104.15625 C 1020.664062 108.871094 1016.542969 115.238281 1012.800781 120.703125 C 1008.832031 126.46875 1004.9375 132.308594 999.769531 138 C 993.78125 144.515625 986.441406 150.429688 978.582031 157.320312 C 969.144531 165.628906 958.214844 175.214844 946.757812 184.125 C 934.179688 193.933594 920.699219 203.894531 906.097656 213.476562 C 890 223.960938 869.183594 236.539062 853.984375 244.101562 C 842.902344 249.644531 830.023438 255.632812 824.183594 256.457031 C 821.9375 256.757812 820.738281 256.457031 819.238281 255.859375 C 817.742188 255.257812 816.171875 254.210938 815.121094 253.011719 C 814.074219 251.816406 813.175781 249.867188 812.800781 248.59375 C 812.5 247.695312 812.425781 247.097656 812.5 246.125 C 812.574219 244.777344 813.101562 242.53125 813.625 241.257812 C 814 240.359375 814.449219 239.835938 815.121094 239.160156 C 816.09375 238.1875 817.96875 236.839844 819.164062 236.316406 C 820.0625 235.941406 821.488281 235.417969 821.636719 235.714844 C 822.011719 236.316406 812.875 244.925781 812.652344 244.777344 C 812.5 244.625 816.769531 238.335938 819.464844 235.941406 C 822.085938 233.621094 824.855469 232.421875 828.601562 230.625 C 834.066406 228.003906 844.175781 224.410156 849.640625 222.613281 C 853.085938 221.488281 854.808594 220.964844 858.175781 220.292969 C 862.96875 219.316406 870.980469 219.019531 875.847656 217.894531 C 879.441406 217.070312 881.761719 216.097656 884.90625 214.976562 C 888.425781 213.703125 892.023438 212.578125 895.988281 210.632812 C 901.15625 208.160156 906.773438 205.089844 912.988281 200.671875 C 921.75 194.53125 932.605469 185.171875 942.640625 175.8125 C 954.09375 165.105469 967.125 151.027344 977.53125 139.574219 C 986.441406 129.6875 993.929688 116.136719 1001.566406 111.34375 C 1006.285156 108.347656 1012.125 106.328125 1015.269531 107.675781 C 1018.042969 108.871094 1020.136719 113.890625 1020.4375 117.332031 C 1020.738281 120.929688 1017.964844 125.195312 1016.46875 128.640625 C 1015.195312 131.636719 1014.296875 133.507812 1012.277344 136.878906 C 1008.605469 142.867188 1001.941406 152.675781 995.203125 160.839844 C 987.265625 170.496094 978.28125 180.082031 967.125 190.566406 C 952.898438 203.96875 930.210938 221.9375 915.609375 233.320312 C 905.273438 241.332031 893.820312 250.167969 888.425781 253.085938 C 886.332031 254.210938 885.132812 254.660156 883.785156 254.886719 C 882.886719 255.035156 882.210938 255.035156 881.3125 254.886719 C 879.964844 254.660156 878.019531 254.0625 876.671875 253.164062 C 875.324219 252.265625 874.125 250.917969 873.378906 249.492188 C 872.628906 248.070312 872.179688 245.972656 872.105469 244.625 C 872.027344 243.652344 872.105469 243.054688 872.402344 242.15625 C 872.777344 240.882812 873.078125 239.535156 874.726562 237.8125 C 879.890625 232.347656 903.402344 221.414062 915.757812 212.652344 C 926.765625 204.867188 936.125 197.304688 945.484375 188.46875 C 955.070312 179.484375 963.378906 169.375 972.515625 159.191406 C 982.25 148.332031 995.128906 129.613281 1002.015625 125.046875 C 1004.789062 123.175781 1007.183594 122.949219 1008.90625 122.800781 C 1009.953125 122.726562 1010.480469 122.949219 1011.378906 123.25 C 1012.648438 123.699219 1014.523438 124.597656 1015.644531 125.71875 C 1016.769531 126.84375 1017.816406 128.566406 1018.265625 129.839844 C 1018.640625 130.738281 1018.640625 131.484375 1018.714844 132.308594 C 1018.789062 133.132812 1018.863281 133.882812 1018.640625 134.78125 C 1018.339844 136.054688 1018.042969 138.898438 1016.695312 139.273438 C 1013.996094 140.023438 1000.21875 129.613281 1000.144531 126.769531 C 1000.144531 125.421875 1002.765625 124.296875 1003.964844 123.625 C 1004.789062 123.175781 1005.386719 123.023438 1006.359375 122.875 C 1007.707031 122.726562 1009.730469 122.648438 1011.226562 123.097656 C 1012.726562 123.546875 1014.371094 124.449219 1015.496094 125.570312 C 1016.617188 126.695312 1017.59375 128.265625 1018.117188 129.761719 C 1018.640625 131.261719 1018.640625 133.359375 1018.492188 134.707031 C 1018.414062 135.605469 1018.265625 135.980469 1017.816406 137.027344 C 1016.84375 139.421875 1014.746094 143.765625 1011.902344 148.332031 C 1006.808594 156.496094 995.800781 171.394531 987.941406 180.832031 C 981.277344 188.765625 975.0625 194.683594 968.171875 201.648438 C 960.910156 209.058594 953.644531 216.246094 945.335938 223.960938 C 935.976562 232.722656 920.550781 247.621094 914.636719 251.140625 C 912.613281 252.339844 911.640625 252.636719 910.066406 252.789062 C 908.496094 252.9375 906.699219 252.636719 905.199219 252.039062 C 903.703125 251.441406 902.28125 250.390625 901.230469 249.195312 C 900.183594 247.996094 899.433594 246.050781 899.058594 244.777344 C 898.761719 243.878906 898.6875 243.277344 898.761719 242.304688 C 898.835938 240.957031 899.285156 238.9375 900.035156 237.589844 C 900.78125 236.164062 902.804688 233.695312 903.402344 233.992188 C 904.375 234.441406 901.753906 248.59375 901.304688 248.59375 C 900.855469 248.59375 898.835938 240.207031 900.707031 235.789062 C 903.851562 228.453125 919.050781 219.316406 927.140625 212.578125 C 933.652344 207.113281 939.570312 203.070312 945.183594 198.277344 C 950.425781 193.859375 954.695312 189.890625 959.859375 184.875 C 966.074219 178.882812 973.265625 171.695312 979.777344 164.582031 C 986.519531 157.242188 992.734375 145.710938 999.769531 141.519531 C 1004.9375 138.449219 1012.875 136.277344 1015.945312 138 C 1018.265625 139.273438 1019.015625 143.542969 1019.089844 146.460938 C 1019.164062 149.53125 1017.21875 153.050781 1015.945312 156.121094 C 1014.746094 159.039062 1013.625 161.210938 1011.828125 164.433594 C 1009.207031 169.222656 1004.863281 176.335938 1001.269531 181.804688 C 997.898438 186.96875 995.054688 191.015625 991.085938 196.40625 C 985.917969 203.519531 979.253906 212.652344 972.515625 220.589844 C 965.402344 228.902344 956.566406 238.113281 949.378906 245 C 943.613281 250.542969 936.199219 257.804688 933.203125 259.226562 C 932.230469 259.675781 931.707031 259.152344 931.03125 259.601562 C 929.984375 260.203125 929.011719 262.597656 927.964844 263.496094 C 927.214844 264.09375 926.691406 264.46875 925.792969 264.769531 C 924.519531 265.21875 922.496094 265.742188 920.925781 265.667969 C 919.351562 265.59375 917.628906 264.992188 916.28125 264.167969 C 914.933594 263.347656 913.585938 262 912.761719 260.652344 C 911.9375 259.300781 911.414062 257.503906 911.339844 255.933594 C 911.265625 254.359375 911.339844 252.714844 912.238281 251.066406 C 913.660156 248.59375 917.03125 246.574219 920.699219 243.578125 C 926.988281 238.488281 938.519531 230.847656 946.90625 224.035156 C 955.144531 217.371094 963.082031 210.257812 970.570312 203.070312 C 977.832031 196.105469 985.019531 188.394531 991.085938 181.503906 C 996.328125 175.589844 999.621094 168.175781 1005.085938 164.355469 C 1009.953125 160.988281 1018.339844 157.019531 1021.710938 158.667969 C 1024.480469 160.015625 1026.054688 165.332031 1025.527344 169.972656 C 1024.554688 178.585938 1011.078125 194.082031 1004.1875 204.640625 C 998.273438 213.777344 992.582031 222.386719 986.96875 229.652344 C 982.324219 235.640625 977.082031 241.554688 973.414062 245.449219 C 971.09375 247.921875 969.070312 250.167969 967.5 251.289062 C 966.601562 251.890625 966.152344 252.113281 965.253906 252.414062 C 963.980469 252.789062 961.957031 253.164062 960.386719 252.9375 C 958.8125 252.714844 957.089844 252.113281 955.816406 251.214844 C 954.542969 250.316406 953.347656 248.894531 952.597656 247.472656 C 951.847656 246.050781 951.398438 244.253906 951.398438 242.679688 C 951.398438 241.105469 951.773438 239.535156 952.671875 237.886719 C 953.945312 235.566406 956.566406 233.695312 959.5625 230.550781 C 965.101562 224.859375 975.4375 214.976562 983.449219 206.589844 C 991.910156 197.753906 1003.816406 182.328125 1009.132812 178.734375 C 1011.003906 177.460938 1012.050781 177.238281 1013.625 177.011719 C 1015.195312 176.785156 1017.21875 177.160156 1018.492188 177.535156 C 1019.390625 177.835938 1019.914062 178.058594 1020.664062 178.660156 C 1021.710938 179.484375 1023.207031 180.90625 1023.957031 182.328125 C 1024.707031 183.75 1025.078125 185.472656 1025.078125 187.046875 C 1025.078125 188.617188 1024.707031 190.339844 1023.957031 191.761719 C 1023.207031 193.183594 1021.035156 195.582031 1020.738281 195.433594 C 1020.289062 195.207031 1024.554688 185.023438 1024.929688 185.097656 C 1025.304688 185.171875 1024.628906 190.789062 1023.433594 194.234375 C 1021.636719 199.476562 1017.367188 206.0625 1013.472656 212.804688 C 1008.679688 221.113281 1001.269531 233.09375 996.625 240.132812 C 993.554688 244.703125 991.308594 249.417969 988.6875 251.289062 C 987.117188 252.414062 985.621094 252.636719 984.046875 252.714844 C 982.472656 252.789062 980.675781 252.5625 979.253906 251.890625 C 977.832031 251.214844 976.410156 250.09375 975.4375 248.894531 C 974.460938 247.621094 973.714844 246.050781 973.414062 244.476562 C 973.113281 242.980469 973.265625 241.183594 973.714844 239.683594 C 974.164062 238.1875 974.761719 237.289062 976.183594 235.492188 C 980.078125 230.550781 993.855469 213.476562 1001.792969 211.15625 C 1006.960938 209.660156 1013.625 211.457031 1016.394531 213.925781 C 1018.566406 215.875 1019.164062 218.945312 1019.164062 222.6875 C 1019.089844 229.203125 1012.050781 245.972656 1010.179688 249.71875 C 1009.65625 250.765625 1009.503906 250.992188 1008.832031 251.664062 C 1007.933594 252.5625 1006.0625 253.910156 1004.863281 254.4375 C 1004.039062 254.808594 1003.441406 254.960938 1002.464844 255.035156 C 1001.117188 255.109375 999.097656 255.035156 997.675781 254.511719 C 996.175781 253.988281 994.753906 252.9375 993.707031 251.738281 C 992.65625 250.542969 991.835938 248.96875 991.460938 247.472656 C 991.085938 245.972656 990.859375 244.476562 991.386719 242.679688 C 992.207031 239.835938 995.429688 235.042969 997.75 232.421875 C 999.546875 230.398438 1002.242188 229.203125 1003.367188 227.855469 C 1004.039062 227.03125 1003.890625 226.355469 1004.488281 225.609375 C 1005.3125 224.558594 1006.734375 223.136719 1008.15625 222.386719 C 1009.582031 221.640625 1011.527344 221.265625 1012.875 221.191406 C 1013.773438 221.113281 1014.371094 221.191406 1015.269531 221.488281 C 1016.542969 221.863281 1018.414062 222.6875 1019.613281 223.734375 C 1020.8125 224.785156 1021.859375 226.28125 1022.382812 227.777344 C 1022.910156 229.277344 1023.058594 231.222656 1022.984375 232.570312 C 1022.910156 233.542969 1022.910156 234.070312 1022.382812 234.96875 C 1021.335938 236.839844 1017.890625 240.058594 1015.347656 242.304688 C 1012.726562 244.550781 1010.253906 246.347656 1006.808594 248.371094 C 1002.242188 251.066406 995.878906 253.988281 990.035156 256.382812 C 983.898438 258.851562 978.054688 261.101562 970.867188 262.820312 C 962.109375 264.992188 948.253906 266.714844 941.066406 267.464844 C 937.023438 267.914062 935.675781 267.914062 931.632812 268.0625 C 924.519531 268.289062 913.734375 267.839844 902.054688 268.0625 C 885.132812 268.4375 858.328125 270.683594 839.757812 270.683594 C 824.707031 270.683594 815.273438 269.113281 798.796875 268.8125 C 773.9375 268.289062 727.363281 269.785156 704.976562 269.410156 C 692.472656 269.1875 685.65625 268.886719 675.773438 268.214844 C 665.515625 267.464844 654.957031 266.789062 644.625 265.066406 C 634.140625 263.347656 623.507812 260.652344 613.324219 257.953125 C 603.441406 255.335938 584.421875 251.816406 584.273438 249.195312 C 584.199219 247.621094 593.109375 247.472656 594.605469 244.851562 C 596.179688 242.15625 591.535156 234.292969 593.109375 232.871094 C 594.457031 231.671875 598.800781 234.519531 601.71875 234.890625 C 604.714844 235.265625 606.585938 235.117188 610.78125 235.042969 C 620.066406 234.890625 645.296875 231.222656 655.632812 232.496094 C 661.246094 233.171875 664.390625 236.089844 668.359375 236.390625 C 671.65625 236.613281 674.425781 234.667969 677.644531 234.890625 C 681.238281 235.191406 684.984375 237.738281 688.878906 238.636719 C 692.921875 239.535156 697.789062 240.507812 701.53125 240.132812 C 704.675781 239.835938 706.996094 237.886719 709.917969 237.4375 C 712.914062 236.988281 715.011719 237.738281 719.128906 237.4375 C 727.515625 236.839844 749.003906 232.496094 757.464844 232.046875 C 761.660156 231.824219 766.902344 232.644531 766.902344 232.421875 C 766.902344 232.273438 762.257812 231.523438 762.257812 231.296875 C 762.257812 231.148438 763.832031 230.925781 764.804688 231 C 766.152344 231.074219 768.25 231.449219 769.671875 232.195312 C 771.09375 232.945312 772.515625 234.21875 773.414062 235.566406 C 774.3125 236.914062 774.914062 238.636719 775.136719 240.285156 C 775.363281 241.929688 774.988281 243.953125 774.539062 245.300781 C 774.238281 246.199219 773.9375 246.796875 773.339844 247.546875 C 772.515625 248.59375 770.71875 250.167969 769.519531 250.839844 C 768.699219 251.367188 768.097656 251.140625 767.125 251.738281 C 765.101562 252.9375 761.660156 257.054688 758.8125 259.078125 C 756.269531 260.949219 753.722656 262.148438 750.953125 263.644531 C 747.882812 265.292969 744.660156 266.941406 741.21875 268.363281 C 737.398438 269.933594 732.832031 271.433594 729.011719 272.480469 C 725.640625 273.378906 722.871094 274.054688 719.425781 274.578125 C 715.382812 275.175781 711.339844 275.550781 706.097656 275.851562 C 698.613281 276.300781 686.707031 276.449219 678.917969 276.375 C 673.003906 276.300781 669.933594 276.375 663.269531 275.851562 C 651.289062 274.953125 625.753906 271.730469 613.25 269.710938 C 605.6875 268.511719 603.367188 267.914062 595.128906 266.117188 C 576.933594 262.148438 530.585938 250.167969 507.972656 245.300781 C 493.671875 242.230469 485.132812 240.65625 472.78125 238.488281 C 459.078125 236.089844 444.925781 233.769531 429.351562 231.523438 C 411.304688 228.902344 388.09375 225.53125 370.796875 224.109375 C 357.09375 222.988281 346.683594 222.910156 333.957031 222.835938 C 320.253906 222.761719 307.597656 222.988281 291.351562 223.960938 C 269.636719 225.308594 241.257812 229.5 215.5 231.296875 C 188.917969 233.171875 145.636719 236.464844 134.253906 234.96875 C 131.109375 234.519531 129.839844 233.992188 128.414062 233.09375 C 127.441406 232.496094 126.917969 231.898438 126.320312 230.925781 C 125.496094 229.5 124.523438 227.03125 124.597656 225.082031 C 124.671875 223.136719 125.570312 220.890625 126.769531 219.394531 C 127.964844 217.894531 130.363281 216.695312 131.933594 216.171875 C 133.058594 215.796875 133.882812 215.722656 135.078125 215.949219 C 136.726562 216.246094 139.199219 217.144531 140.621094 218.492188 C 142.042969 219.765625 143.167969 222.238281 143.539062 223.808594 C 143.839844 224.933594 143.839844 225.757812 143.539062 226.878906 C 143.167969 228.453125 142.117188 231 140.769531 232.347656 C 139.347656 233.695312 136.875 234.667969 135.230469 234.96875 C 134.105469 235.191406 133.28125 235.117188 132.160156 234.816406 C 130.585938 234.367188 128.191406 233.171875 126.917969 231.746094 C 125.644531 230.25 124.820312 227.703125 124.597656 226.058594 C 124.445312 224.933594 124.523438 224.109375 124.894531 222.988281 C 125.421875 221.414062 126.769531 219.09375 128.265625 217.894531 C 129.761719 216.695312 131.558594 216.472656 134.03125 215.949219 C 138 215.125 143.015625 215.125 150.203125 214.824219 C 164.433594 214.226562 191.089844 214.824219 213.777344 213.703125 C 240.132812 212.355469 278.695312 207.785156 298.988281 206.589844 C 310.292969 205.914062 315.761719 205.765625 325.34375 205.613281 C 336.800781 205.464844 350.652344 205.390625 363.15625 206.0625 C 375.4375 206.738281 385.097656 207.636719 399.773438 209.433594 C 421.9375 212.128906 461.023438 217.894531 482.886719 221.789062 C 497.191406 224.335938 504.152344 226.058594 518.304688 229.277344 C 539.71875 234.144531 577.457031 244.476562 598.648438 248.671875 C 612.277344 251.367188 621.414062 252.714844 632.570312 254.0625 C 643.277344 255.410156 653.910156 256.457031 664.167969 256.90625 C 673.828125 257.28125 683.636719 257.132812 692.472656 256.757812 C 700.332031 256.382812 708.570312 255.859375 714.785156 254.808594 C 719.425781 253.988281 723.023438 252.9375 726.691406 251.738281 C 729.984375 250.691406 732.832031 249.570312 735.824219 248.222656 C 738.972656 246.796875 741.667969 245.375 745.1875 243.203125 C 750.128906 240.207031 758.066406 232.570312 762.257812 231.296875 C 764.28125 230.625 765.925781 231.074219 767.273438 231.296875 C 768.25 231.449219 768.847656 231.671875 769.671875 232.195312 C 770.867188 232.945312 772.515625 234.21875 773.414062 235.566406 C 774.3125 236.914062 774.914062 238.636719 775.136719 240.285156 C 775.363281 241.929688 774.988281 243.953125 774.539062 245.300781 C 774.238281 246.199219 773.9375 246.796875 773.339844 247.546875 C 772.515625 248.59375 771.765625 249.792969 769.519531 250.839844 C 762.40625 254.136719 731.78125 257.65625 719.128906 258.554688 C 711.492188 259.078125 708.269531 258.851562 700.78125 258.402344 C 689.027344 257.730469 667.164062 254.210938 655.632812 253.460938 C 648.441406 253.011719 644.476562 252.714844 638.183594 253.011719 C 630.621094 253.386719 619.765625 255.632812 613.402344 255.933594 C 609.507812 256.15625 607.035156 256.082031 603.890625 255.785156 C 600.671875 255.484375 597.375 254.734375 594.230469 253.910156 C 591.238281 253.164062 588.089844 252.714844 585.472656 251.140625 C 582.625 249.417969 578.65625 246.871094 577.832031 243.804688 C 576.933594 240.433594 578.65625 233.542969 581.578125 231.449219 C 584.871094 229.050781 593.183594 230.847656 597.75 231.824219 C 601.34375 232.570312 602.917969 234.441406 606.960938 235.789062 C 614 238.113281 629.347656 241.40625 636.613281 242.980469 C 640.804688 243.878906 642.226562 244.253906 646.496094 244.851562 C 654.132812 245.972656 669.335938 247.246094 678.84375 247.996094 C 686.257812 248.59375 689.550781 248.894531 698.761719 249.121094 C 719.351562 249.644531 771.394531 247.996094 798.796875 248.445312 C 817.96875 248.746094 831.371094 250.390625 847.617188 250.316406 C 863.792969 250.242188 880.789062 248.371094 896.066406 247.921875 C 909.691406 247.546875 922.648438 248.59375 934.777344 247.695312 C 945.632812 246.871094 956.640625 245.523438 965.550781 243.355469 C 972.738281 241.632812 978.207031 239.234375 984.421875 236.691406 C 990.785156 234.070312 1000.96875 230.175781 1003.367188 227.855469 C 1004.1875 227.03125 1003.890625 226.429688 1004.488281 225.683594 C 1005.3125 224.632812 1006.734375 223.136719 1008.15625 222.386719 C 1009.582031 221.640625 1011.300781 221.191406 1012.875 221.191406 C 1014.445312 221.191406 1016.167969 221.640625 1017.59375 222.386719 C 1019.015625 223.136719 1020.363281 224.335938 1021.261719 225.609375 C 1022.160156 226.878906 1022.757812 228.527344 1022.984375 230.101562 C 1023.207031 231.671875 1023.058594 233.394531 1022.382812 234.96875 C 1021.636719 236.914062 1019.839844 238.785156 1018.117188 240.65625 C 1016.09375 242.90625 1012.574219 245.300781 1011.003906 247.398438 C 1009.878906 248.894531 1009.878906 250.46875 1008.832031 251.664062 C 1007.78125 252.863281 1006.0625 253.910156 1004.863281 254.4375 C 1004.039062 254.808594 1003.441406 254.960938 1002.464844 255.035156 C 1001.117188 255.109375 998.949219 254.886719 997.675781 254.511719 C 996.777344 254.210938 996.25 253.988281 995.503906 253.386719 C 994.453125 252.5625 993.03125 251.140625 992.285156 249.792969 C 991.535156 248.371094 991.234375 246.722656 991.160156 245.074219 C 991.085938 243.429688 991.308594 241.929688 991.757812 239.984375 C 992.433594 237.0625 993.480469 232.273438 995.351562 229.425781 C 997.074219 226.804688 999.847656 223.0625 1002.09375 223.210938 C 1004.5625 223.359375 1009.65625 228.304688 1009.503906 231.597656 C 1009.28125 236.839844 993.40625 248.59375 988.6875 251.289062 C 986.742188 252.414062 985.621094 252.636719 984.046875 252.714844 C 982.472656 252.789062 980.527344 252.339844 979.253906 251.890625 C 978.355469 251.589844 977.832031 251.140625 977.15625 250.617188 C 976.558594 250.09375 975.960938 249.644531 975.4375 248.894531 C 974.6875 247.847656 973.714844 246.050781 973.414062 244.476562 C 973.113281 242.980469 973.414062 240.957031 973.714844 239.683594 C 973.9375 238.785156 974.164062 238.1875 974.6875 237.4375 C 975.4375 236.316406 977.457031 235.117188 978.054688 233.992188 C 978.429688 233.246094 978.132812 232.722656 978.503906 231.746094 C 979.253906 229.800781 981.125 227.03125 983.148438 223.585938 C 986.816406 217.371094 994.605469 203.59375 998.871094 197.601562 C 1001.269531 194.234375 1003.515625 192.960938 1005.164062 190.039062 C 1007.035156 186.820312 1007.183594 180.753906 1009.132812 178.734375 C 1010.402344 177.460938 1012.050781 177.238281 1013.625 177.011719 C 1015.195312 176.785156 1016.992188 177.011719 1018.492188 177.535156 C 1019.988281 178.058594 1021.484375 179.109375 1022.535156 180.304688 C 1023.582031 181.503906 1024.40625 183.078125 1024.78125 184.648438 C 1025.15625 186.148438 1025.230469 188.019531 1024.855469 189.515625 C 1024.480469 191.015625 1023.882812 191.988281 1022.609375 193.785156 C 1019.839844 197.753906 1013.324219 204.265625 1006.882812 211.15625 C 997.148438 221.5625 973.9375 245.300781 969.371094 249.644531 C 968.398438 250.617188 968.324219 250.765625 967.5 251.289062 C 966.375 251.964844 964.429688 252.863281 962.855469 253.011719 C 961.285156 253.164062 959.488281 252.9375 957.988281 252.339844 C 956.492188 251.738281 954.992188 250.691406 953.945312 249.492188 C 952.898438 248.296875 952.074219 246.421875 951.699219 245.152344 C 951.398438 244.253906 951.324219 243.652344 951.398438 242.679688 C 951.476562 241.332031 951.699219 239.609375 952.671875 237.886719 C 954.171875 235.191406 958.140625 232.796875 961.359375 229.125 C 966.152344 223.660156 971.917969 216.097656 977.980469 207.488281 C 986.441406 195.507812 1001.34375 162.933594 1006.359375 163.382812 C 1008.53125 163.535156 1007.933594 170.648438 1010.328125 172.667969 C 1012.875 174.839844 1021.035156 173.269531 1021.785156 175.589844 C 1022.832031 178.808594 1013.023438 186.820312 1007.78125 192.8125 C 1001.71875 199.699219 995.054688 206.886719 987.339844 214.375 C 978.207031 223.285156 964.804688 235.117188 956.191406 242.378906 C 950.351562 247.320312 945.632812 251.140625 940.992188 254.210938 C 937.398438 256.53125 933.28125 257.730469 931.03125 259.601562 C 929.535156 260.875 929.011719 262.597656 927.964844 263.496094 C 927.214844 264.09375 926.691406 264.46875 925.792969 264.769531 C 924.519531 265.21875 922.496094 265.742188 920.925781 265.667969 C 919.351562 265.59375 917.628906 264.992188 916.28125 264.167969 C 914.933594 263.347656 913.585938 262 912.761719 260.652344 C 911.9375 259.300781 911.414062 257.503906 911.339844 255.933594 C 911.265625 254.359375 911.117188 253.011719 912.238281 251.066406 C 915.085938 245.972656 929.761719 235.566406 936.796875 228.828125 C 942.414062 223.4375 946.832031 219.019531 951.476562 213.925781 C 955.96875 208.984375 959.488281 204.792969 964.203125 198.652344 C 970.71875 190.117188 979.929688 177.160156 986.441406 166.902344 C 992.207031 157.84375 998.421875 140.097656 1001.492188 140.472656 C 1003.367188 140.695312 1002.316406 149.832031 1004.863281 151.925781 C 1007.484375 154.023438 1016.246094 150.878906 1017.066406 152.824219 C 1018.117188 155.296875 1009.207031 162.636719 1004.414062 168.027344 C 998.574219 174.617188 991.683594 182.027344 984.269531 189.367188 C 975.808594 197.753906 966.375 206.511719 956.117188 215.5 C 944.4375 225.683594 922.273438 249.042969 917.628906 247.171875 C 915.457031 246.273438 916.882812 236.238281 916.433594 236.238281 C 915.90625 236.238281 916.582031 248.746094 914.636719 251.140625 C 913.511719 252.488281 911.339844 252.5625 910.066406 252.789062 C 909.167969 252.9375 908.496094 252.9375 907.597656 252.714844 C 906.25 252.414062 904.300781 251.816406 903.027344 250.839844 C 901.753906 249.941406 900.558594 248.519531 899.882812 247.097656 C 899.136719 245.675781 898.761719 243.878906 898.761719 242.304688 C 898.761719 240.734375 899.433594 238.785156 900.035156 237.589844 C 900.484375 236.691406 900.632812 236.539062 901.53125 235.566406 C 905.050781 231.671875 920.324219 219.542969 930.734375 209.734375 C 943.386719 197.828125 960.234375 181.953125 971.617188 168.699219 C 981.125 157.691406 990.710938 144.289062 995.429688 136.503906 C 997.898438 132.460938 998.421875 129.015625 1000.144531 126.769531 C 1001.34375 125.269531 1002.542969 124.296875 1003.964844 123.625 C 1005.386719 122.949219 1007.257812 122.648438 1008.832031 122.726562 C 1010.402344 122.800781 1012.199219 123.25 1013.546875 124.074219 C 1014.894531 124.898438 1016.320312 126.394531 1017.066406 127.515625 C 1017.59375 128.265625 1017.890625 128.863281 1018.117188 129.761719 C 1018.492188 131.035156 1018.789062 133.132812 1018.492188 134.707031 C 1018.191406 136.277344 1017.816406 138.824219 1016.542969 139.199219 C 1013.847656 139.871094 1000.296875 129.613281 1000.296875 126.84375 C 1000.296875 125.496094 1002.691406 124.449219 1004.113281 123.773438 C 1005.535156 123.097656 1007.558594 122.800781 1008.90625 122.800781 C 1009.878906 122.800781 1010.480469 122.949219 1011.378906 123.25 C 1012.648438 123.699219 1014.523438 124.597656 1015.644531 125.71875 C 1016.769531 126.84375 1017.816406 128.566406 1018.265625 129.839844 C 1018.640625 130.738281 1018.640625 131.484375 1018.714844 132.308594 C 1018.789062 133.132812 1018.863281 133.882812 1018.640625 134.78125 C 1018.339844 136.054688 1018.042969 137.101562 1016.695312 139.273438 C 1011.226562 147.882812 978.054688 184.574219 965.703125 197.304688 C 959.1875 204.042969 955.816406 206.886719 949.976562 211.90625 C 943.089844 217.746094 934.925781 224.109375 926.839844 229.875 C 918.378906 235.867188 906.921875 243.429688 900.109375 247.097656 C 896.140625 249.195312 892.769531 249.941406 890.300781 251.367188 C 888.578125 252.339844 887.753906 253.613281 886.257812 254.210938 C 884.757812 254.808594 882.886719 255.035156 881.3125 254.886719 C 879.742188 254.734375 878.019531 254.0625 876.671875 253.164062 C 875.324219 252.265625 874.125 250.917969 873.378906 249.492188 C 872.628906 248.070312 872.179688 245.972656 872.105469 244.625 C 872.027344 243.652344 872.105469 243.054688 872.402344 242.15625 C 872.777344 240.882812 874.648438 237.8125 874.726562 237.8125 C 874.800781 237.8125 873.601562 239.984375 873.828125 240.132812 C 874.351562 240.507812 879.441406 234.667969 883.710938 231.148438 C 890.671875 225.382812 902.203125 217.746094 912.464844 209.582031 C 924.816406 199.773438 944.585938 183 952.449219 175.886719 C 955.894531 172.742188 956.714844 171.84375 959.636719 168.851562 C 964.503906 163.832031 973.789062 154.25 978.65625 148.484375 C 982.023438 144.515625 983.898438 141.96875 986.59375 138.074219 C 989.738281 133.507812 993.257812 127.066406 996.328125 122.800781 C 998.722656 119.429688 1001.269531 114.039062 1003.214844 114.265625 C 1005.085938 114.488281 1005.460938 121.828125 1007.933594 123.472656 C 1010.328125 125.046875 1017.066406 122.351562 1017.816406 124.148438 C 1019.3125 127.667969 1001.492188 143.542969 992.65625 153.199219 C 983.449219 163.308594 972.816406 174.390625 963.679688 183.375 C 955.894531 191.015625 948.40625 198.050781 941.515625 203.96875 C 935.898438 208.761719 930.132812 213.101562 925.640625 216.398438 C 922.496094 218.71875 920.699219 219.992188 917.40625 222.011719 C 912.914062 224.785156 906.023438 228.675781 900.78125 231.074219 C 896.363281 233.09375 892.097656 234.292969 888.054688 235.714844 C 884.308594 236.988281 880.941406 238.5625 877.269531 239.308594 C 873.675781 239.984375 870.007812 239.609375 866.339844 240.058594 C 862.519531 240.582031 859 241.03125 854.730469 242.304688 C 848.964844 244.027344 840.132812 247.921875 835.1875 250.46875 C 831.894531 252.113281 827.777344 255.632812 827.402344 255.183594 C 827.027344 254.734375 833.542969 247.546875 833.390625 247.398438 C 833.167969 247.246094 827.027344 255.484375 824.183594 256.457031 C 822.460938 257.054688 820.738281 256.457031 819.238281 255.859375 C 817.742188 255.257812 816.171875 254.210938 815.121094 253.011719 C 814.074219 251.816406 813.175781 249.867188 812.800781 248.59375 C 812.5 247.695312 812.425781 247.097656 812.5 246.125 C 812.574219 244.777344 812.875 242.679688 813.625 241.257812 C 814.375 239.835938 815.644531 238.410156 816.992188 237.511719 C 818.339844 236.613281 821.5625 235.566406 821.636719 235.714844 C 821.710938 235.867188 817.21875 238.488281 817.292969 238.636719 C 817.519531 239.011719 833.917969 231.222656 843.949219 225.90625 C 857.800781 218.570312 880.414062 205.316406 892.171875 197.902344 C 899.210938 193.484375 902.355469 191.238281 908.570312 186.746094 C 917.253906 180.53125 928.5625 171.996094 939.121094 163.535156 C 950.949219 154.023438 966.675781 140.695312 976.035156 132.160156 C 982.101562 126.617188 986.441406 123.25 990.5625 118.007812 C 994.605469 112.765625 996.851562 106.402344 1000.445312 100.785156 C 1004.113281 95.019531 1009.65625 85.808594 1012.425781 83.863281 C 1013.398438 83.191406 1013.847656 83.265625 1014.820312 83.191406 C 1016.167969 83.039062 1018.265625 83.039062 1019.839844 83.5625 C 1021.335938 84.089844 1023.058594 85.359375 1024.03125 86.257812 C 1024.707031 86.933594 1025.078125 87.382812 1025.527344 88.28125 C 1026.128906 89.480469 1026.800781 91.726562 1026.953125 93.074219 C 1027.027344 94.046875 1026.878906 94.796875 1026.726562 95.621094 C 1026.578125 96.441406 1026.351562 97.191406 1025.902344 98.015625 C 1025.230469 99.214844 1023.808594 100.9375 1022.757812 101.835938 C 1022.011719 102.433594 1021.335938 103.40625 1020.511719 103.105469 C 1018.265625 102.359375 1011.152344 86.410156 1012.5 83.9375 C 1013.175781 82.742188 1015.796875 82.964844 1017.441406 83.113281 C 1019.089844 83.265625 1020.886719 83.789062 1022.234375 84.6875 C 1023.582031 85.585938 1024.855469 86.933594 1025.679688 88.355469 C 1026.503906 89.777344 1026.953125 91.5 1027.027344 93.148438 C 1027.101562 94.722656 1026.578125 96.742188 1026.054688 98.015625 C 1025.679688 98.914062 1025.605469 99.214844 1024.707031 100.1875 C 1020.960938 104.230469 999.171875 118.15625 990.113281 125.195312 C 983.972656 129.914062 979.480469 134.40625 975.136719 137.550781 C 972.066406 139.796875 969.820312 140.472656 966.824219 142.792969 C 962.632812 145.9375 958.664062 150.429688 952.671875 155.445312 C 943.164062 163.457031 924.292969 177.984375 914.558594 185.398438 C 908.644531 189.890625 905.273438 192.511719 900.183594 196.03125 C 894.792969 199.773438 889.851562 203.144531 883.035156 207.1875 C 873.601562 212.804688 859.675781 220.367188 848.59375 225.757812 C 838.707031 230.625 830.097656 234.59375 819.839844 238.488281 C 808.609375 242.753906 796.253906 246.648438 783.898438 250.019531 C 771.09375 253.535156 753.046875 258.179688 744.4375 259.078125 C 740.394531 259.453125 738.523438 258.703125 735.300781 258.851562 C 731.78125 259.078125 727.664062 260.125 724.144531 260.351562 C 721.074219 260.574219 719.351562 260.351562 715.460938 260.351562 C 707.597656 260.351562 691.722656 260.652344 679.667969 260.203125 C 667.386719 259.75 657.054688 258.851562 642.527344 257.582031 C 621.9375 255.785156 584.722656 252.1875 567.726562 249.792969 C 558.890625 248.59375 554.847656 247.320312 547.65625 246.273438 C 539.269531 245.074219 530.511719 244.101562 520.253906 243.054688 C 507.148438 241.707031 490.898438 240.058594 475.398438 239.085938 C 458.851562 238.039062 440.207031 237.363281 424.035156 236.914062 C 409.582031 236.539062 388.242188 237.363281 383 236.464844 C 381.726562 236.238281 381.503906 236.089844 380.679688 235.640625 C 379.554688 234.96875 377.835938 233.394531 377.011719 232.347656 C 376.410156 231.597656 376.113281 231.074219 375.8125 230.175781 C 375.363281 228.902344 374.988281 226.878906 375.136719 225.308594 C 375.289062 223.734375 375.960938 222.011719 376.859375 220.664062 C 377.757812 219.316406 379.40625 218.042969 380.605469 217.296875 C 381.429688 216.773438 381.652344 216.695312 382.925781 216.398438 C 388.691406 215.125 413.851562 213.476562 431.371094 212.652344 C 452.039062 211.753906 487.457031 207.039062 499.0625 211.753906 C 504.078125 213.777344 507.972656 220.742188 507.972656 220.742188 C 507.972656 220.742188 500.109375 213.253906 500.410156 212.804688 C 500.558594 212.578125 501.980469 213.179688 502.804688 213.703125 C 503.929688 214.449219 505.574219 215.722656 506.472656 217.070312 C 507.375 218.417969 508.046875 220.441406 508.273438 221.789062 C 508.421875 222.761719 508.273438 223.4375 508.195312 224.257812 C 508.121094 225.082031 507.972656 225.832031 507.597656 226.730469 C 507.074219 227.929688 505.949219 229.726562 504.753906 230.773438 C 503.554688 231.824219 501.90625 232.722656 500.335938 233.09375 C 498.761719 233.46875 496.140625 234.144531 495.316406 233.019531 C 493.59375 230.773438 497.9375 213.925781 500.558594 212.804688 C 501.832031 212.203125 503.777344 214.078125 504.976562 215.125 C 506.175781 216.171875 507.222656 217.96875 507.746094 219.242188 C 508.121094 220.140625 508.273438 220.890625 508.347656 221.714844 C 508.421875 222.539062 508.496094 223.285156 508.347656 224.257812 C 508.121094 225.609375 507.296875 227.777344 506.550781 228.902344 C 506.023438 229.726562 505.574219 230.175781 504.828125 230.773438 C 503.777344 231.597656 501.980469 232.722656 500.410156 233.09375 C 498.835938 233.46875 497.339844 233.394531 495.394531 233.019531 C 492.472656 232.496094 487.980469 230.773438 484.761719 229.351562 C 481.914062 228.078125 479.445312 226.65625 476.972656 225.082031 C 474.5 223.511719 472.628906 221.039062 470.007812 219.992188 C 467.3125 218.945312 464.542969 219.09375 461.023438 218.945312 C 456.082031 218.71875 449.640625 219.167969 442.976562 219.46875 C 434.816406 219.84375 425.53125 220.292969 415.648438 221.265625 C 403.816406 222.460938 389.589844 224.109375 376.785156 226.507812 C 363.980469 228.828125 346.910156 232.644531 338.746094 235.417969 C 334.703125 236.765625 332.683594 237.8125 329.914062 239.386719 C 327.214844 240.957031 324.148438 244.328125 322.273438 244.851562 C 321.300781 245.074219 320.777344 244.851562 319.953125 244.625 C 318.753906 244.253906 316.734375 243.277344 315.761719 242.457031 C 315.085938 241.855469 314.710938 241.332031 314.261719 240.65625 C 313.8125 240.058594 313.4375 239.460938 313.140625 238.636719 C 312.765625 237.4375 312.390625 235.492188 312.539062 233.992188 C 312.691406 232.496094 313.515625 230.699219 314.1875 229.574219 C 314.636719 228.828125 314.9375 228.304688 315.761719 227.777344 C 317.109375 226.804688 318.753906 225.980469 322.199219 225.308594 C 334.40625 222.910156 382.101562 224.109375 407.933594 223.210938 C 429.199219 222.460938 447.46875 221.714844 466.117188 220.589844 C 483.335938 219.617188 505.425781 216.847656 515.835938 216.996094 C 520.550781 217.070312 524.820312 216.023438 526.167969 217.96875 C 527.589844 220.066406 526.242188 228.378906 522.722656 230.175781 C 514.9375 234.070312 478.46875 212.503906 464.617188 208.234375 C 457.128906 205.914062 452.113281 204.941406 446.945312 203.96875 C 443.054688 203.21875 440.957031 202.320312 436.539062 202.394531 C 428.675781 202.46875 415.796875 205.765625 403.667969 208.160156 C 388.542969 211.15625 363.90625 217.519531 353.050781 219.46875 C 347.957031 220.367188 346.757812 219.917969 341.742188 220.964844 C 331.183594 223.136719 306.25 231.523438 293.519531 234.519531 C 285.359375 236.390625 279.742188 237.738281 273.230469 238.335938 C 267.238281 238.859375 260.726562 238.710938 255.859375 238.335938 C 252.339844 238.113281 250.839844 237.4375 246.796875 237.0625 C 238.484375 236.316406 219.617188 236.464844 208.910156 235.566406 C 200.972656 234.890625 196.855469 234.292969 188.316406 233.019531 C 174.015625 230.925781 149.304688 227.179688 131.1875 223.210938 C 114.488281 219.542969 93.597656 213.550781 83.414062 210.332031 C 78.472656 208.761719 76.601562 208.085938 72.632812 206.363281 C 67.539062 204.117188 61.25 201.199219 55.558594 197.679688 C 49.195312 193.785156 42.53125 189.292969 36.464844 183.902344 C 29.875 178.058594 22.164062 168.773438 17.820312 163.609375 C 15.273438 160.613281 14.226562 159.117188 12.203125 156.121094 C 9.285156 151.851562 3.070312 144.066406 2.46875 140.171875 C 2.171875 138.148438 3.144531 136.578125 3.742188 135.304688 C 4.117188 134.40625 4.492188 133.882812 5.167969 133.207031 C 6.140625 132.234375 7.785156 130.886719 9.359375 130.363281 C 10.855469 129.839844 13.027344 129.761719 14.375 129.839844 C 15.347656 129.914062 15.949219 130.0625 16.847656 130.4375 C 18.046875 131.035156 19.917969 132.382812 20.890625 133.359375 C 21.5625 134.03125 21.9375 134.554688 22.3125 135.453125 C 22.835938 136.726562 23.4375 138.226562 23.511719 140.320312 C 23.585938 144.363281 21.414062 152.902344 20.214844 157.769531 C 19.316406 161.289062 17.96875 166.902344 17.371094 166.828125 C 16.773438 166.753906 14.976562 157.917969 16.847656 156.195312 C 19.316406 154.023438 28.902344 157.84375 34.816406 159.117188 C 40.808594 160.390625 47.171875 162.710938 52.5625 163.757812 C 57.054688 164.65625 61.921875 164.28125 64.917969 165.332031 C 66.789062 166.003906 68.214844 166.976562 69.261719 167.875 C 70.011719 168.476562 70.386719 169 70.835938 169.824219 C 71.507812 171.019531 72.257812 172.96875 72.40625 174.617188 C 72.554688 176.261719 72.183594 178.058594 71.582031 179.558594 C 70.984375 181.054688 69.859375 182.550781 68.585938 183.601562 C 67.316406 184.648438 65.367188 185.398438 64.019531 185.699219 C 63.046875 185.921875 62.671875 185.847656 61.472656 185.847656 C 58.253906 185.847656 49.042969 184.648438 44.253906 184.648438 C 40.808594 184.648438 38.5625 185.472656 35.492188 185.25 C 32.046875 185.023438 28.078125 184.648438 24.632812 183 C 20.816406 181.203125 13.402344 175.886719 13.851562 174.167969 C 14.226562 172.667969 20.214844 172.742188 24.109375 172.445312 C 29.277344 171.996094 35.941406 172.144531 42.15625 172.519531 C 48.820312 172.894531 56.90625 173.71875 62.898438 174.765625 C 67.539062 175.589844 72.105469 176.636719 75.101562 177.761719 C 76.972656 178.507812 78.320312 179.035156 79.519531 180.082031 C 80.71875 181.128906 81.765625 182.703125 82.367188 184.199219 C 82.964844 185.699219 83.039062 187.867188 82.964844 189.21875 C 82.890625 190.191406 82.738281 190.714844 82.367188 191.613281 C 81.839844 192.8125 80.71875 194.683594 79.519531 195.730469 C 78.320312 196.78125 77.421875 197.453125 75.101562 198.050781 C 68.363281 199.847656 44.328125 198.128906 33.246094 199.625 C 25.757812 200.671875 18.121094 203.816406 14.75 204.042969 C 13.550781 204.117188 13.101562 204.042969 12.203125 203.742188 C 10.933594 203.292969 8.984375 202.394531 7.785156 201.347656 C 6.589844 200.296875 5.464844 198.5 4.941406 197.304688 C 4.566406 196.40625 4.417969 195.804688 4.34375 194.832031 C 4.265625 193.484375 4.566406 191.164062 4.941406 189.890625 C 5.242188 188.992188 5.539062 188.394531 6.140625 187.644531 C 6.964844 186.597656 8.460938 185.023438 9.882812 184.273438 C 11.304688 183.527344 12.28125 183.375 14.75 183.078125 C 22.613281 182.179688 49.941406 182.851562 64.09375 183.902344 C 74.878906 184.648438 87.007812 186.148438 92.472656 187.496094 C 94.71875 188.019531 95.84375 188.316406 97.191406 189.21875 C 98.539062 190.117188 99.8125 191.464844 100.5625 192.886719 C 101.308594 194.308594 101.683594 196.40625 101.832031 197.753906 C 101.910156 198.726562 101.757812 199.398438 101.609375 200.222656 C 101.460938 201.046875 101.234375 201.796875 100.710938 202.621094 C 100.035156 203.816406 98.839844 205.464844 97.492188 206.4375 C 96.144531 207.414062 94.871094 207.9375 92.773438 208.3125 C 88.804688 208.984375 81.839844 207.785156 75.25 207.785156 C 66.789062 207.785156 53.011719 207.710938 46.050781 208.460938 C 42.082031 208.910156 39.835938 209.808594 36.765625 210.183594 C 33.84375 210.558594 31.523438 209.957031 28.152344 210.632812 C 23.0625 211.605469 12.878906 216.621094 9.507812 217.144531 C 8.3125 217.371094 7.9375 217.296875 6.964844 217.070312 C 5.617188 216.773438 3.445312 215.949219 2.320312 215.199219 C 1.496094 214.675781 1.046875 214.226562 0.449219 213.476562 C -0.375 212.355469 -1.421875 210.558594 -1.796875 208.984375 C -2.171875 207.414062 -2.097656 205.539062 -1.648438 203.96875 C -1.199219 202.394531 -0.375 200.746094 0.75 199.550781 C 1.871094 198.351562 2.917969 197.527344 4.941406 196.78125 C 8.835938 195.355469 16.324219 194.757812 23.511719 194.308594 C 33.46875 193.710938 47.097656 194.007812 59.078125 194.53125 C 71.285156 195.058594 84.6875 196.03125 96.144531 197.679688 C 106.175781 199.101562 118.605469 199.699219 124.148438 203.292969 C 127.441406 205.390625 130.289062 211.230469 129.988281 211.457031 C 129.6875 211.753906 120.402344 203.742188 120.777344 203.070312 C 121.003906 202.621094 124.371094 203.742188 125.644531 204.265625 C 126.542969 204.640625 127.066406 205.015625 127.742188 205.691406 C 128.714844 206.664062 129.988281 208.386719 130.585938 209.882812 C 131.1875 211.378906 131.261719 213.476562 131.1875 214.824219 C 131.109375 215.796875 130.960938 216.398438 130.585938 217.296875 C 130.0625 218.570312 128.9375 220.367188 127.742188 221.488281 C 126.542969 222.539062 125.046875 223.359375 123.25 223.808594 C 121.078125 224.410156 118.53125 224.183594 115.386719 224.035156 C 110.59375 223.886719 104.527344 222.613281 97.492188 222.238281 C 87.457031 221.714844 72.105469 221.714844 60.726562 222.238281 C 50.839844 222.6875 40.132812 223.734375 33.171875 224.710938 C 28.828125 225.308594 25.90625 225.683594 22.6875 226.730469 C 19.765625 227.628906 16.695312 230.101562 14.75 230.398438 C 13.703125 230.550781 13.179688 230.398438 12.203125 230.101562 C 10.855469 229.726562 8.835938 228.601562 7.710938 227.777344 C 6.964844 227.179688 6.515625 226.507812 5.988281 225.832031 C 5.539062 225.160156 5.089844 224.484375 4.792969 223.585938 C 4.34375 222.238281 3.96875 220.214844 4.191406 218.570312 C 4.417969 216.921875 5.242188 214.976562 5.988281 213.777344 C 6.515625 212.953125 6.964844 212.503906 7.710938 211.90625 C 8.835938 211.082031 10.855469 209.957031 12.203125 209.507812 C 13.179688 209.210938 13.402344 209.285156 14.75 209.210938 C 19.691406 208.910156 36.464844 209.058594 49.195312 209.285156 C 65.144531 209.582031 84.984375 210.855469 102.882812 211.15625 C 120.851562 211.457031 147.058594 208.609375 156.867188 211.15625 C 160.914062 212.203125 163.382812 213.179688 164.882812 215.648438 C 166.679688 218.570312 167.726562 226.582031 165.332031 228.378906 C 161.210938 231.375 142.417969 220.664062 130.886719 216.023438 C 118.980469 211.230469 104.902344 205.390625 95.167969 200.148438 C 87.980469 196.332031 81.765625 191.988281 77.273438 188.765625 C 74.277344 186.671875 73.003906 185.546875 70.234375 183.078125 C 65.890625 179.257812 59.078125 170.199219 54.136719 167.503906 C 50.917969 165.707031 48.894531 166.003906 45 165.332031 C 38.488281 164.207031 24.484375 164.957031 18.417969 162.710938 C 14.824219 161.363281 11.007812 159.863281 10.632812 157.320312 C 10.03125 153.425781 19.167969 143.390625 23.734375 140.472656 C 26.878906 138.449219 30.25 139.648438 33.394531 138.148438 C 37.140625 136.351562 41.78125 130.214844 44.253906 129.539062 C 45.300781 129.238281 45.898438 129.539062 46.796875 129.839844 C 48.144531 130.289062 50.242188 131.410156 51.289062 132.308594 C 52.039062 132.910156 52.414062 133.433594 52.9375 134.257812 C 53.613281 135.453125 54.511719 137.402344 54.660156 139.046875 C 54.808594 140.695312 54.511719 142.566406 53.910156 144.066406 C 53.3125 145.5625 51.964844 147.210938 50.992188 148.183594 C 50.242188 148.859375 49.71875 149.230469 48.820312 149.605469 C 47.546875 150.128906 46.050781 150.65625 43.878906 150.730469 C 39.683594 150.878906 30.175781 148.859375 25.160156 147.808594 C 21.714844 147.058594 16.546875 146.609375 16.472656 145.5625 C 16.398438 144.289062 29.875 139.574219 30.476562 140.320312 C 30.773438 140.769531 28.601562 143.316406 27.253906 144.289062 C 25.980469 145.261719 24.261719 146.011719 22.613281 146.3125 C 20.964844 146.609375 19.09375 146.460938 17.519531 145.9375 C 15.949219 145.414062 14.375 144.515625 13.253906 143.316406 C 12.128906 142.117188 11.082031 140.472656 10.632812 138.898438 C 10.183594 137.328125 10.183594 135.15625 10.40625 133.808594 C 10.558594 132.832031 10.707031 132.234375 11.230469 131.410156 C 11.832031 130.363281 12.878906 129.164062 14.226562 128.339844 C 16.171875 127.144531 19.765625 126.917969 22.460938 125.71875 C 25.457031 124.449219 30.550781 119.953125 31.296875 120.628906 C 31.972656 121.226562 27.480469 126.019531 27.777344 128.640625 C 28.078125 131.484375 34.441406 136.351562 33.84375 137.101562 C 33.320312 137.777344 28.378906 135.15625 25.609375 133.808594 C 22.613281 132.382812 19.09375 130.738281 16.546875 128.640625 C 14.152344 126.695312 12.28125 124.597656 10.558594 121.828125 C 8.535156 118.53125 5.089844 113.066406 5.765625 109.769531 C 6.363281 106.851562 9.734375 104.003906 12.652344 102.734375 C 15.875 101.308594 21.265625 101.386719 24.710938 102.285156 C 27.703125 103.03125 30.925781 104.605469 32.496094 106.925781 C 34.144531 109.398438 34.816406 116.660156 33.992188 117.035156 C 33.171875 117.410156 30.25 112.09375 27.929688 110.144531 C 25.683594 108.273438 23.363281 106.777344 20.515625 105.652344 C 17.222656 104.378906 11.980469 104.605469 9.210938 103.480469 C 7.335938 102.734375 5.988281 101.609375 5.015625 100.636719 C 4.34375 99.960938 3.96875 99.4375 3.519531 98.539062 C 2.917969 97.265625 2.246094 95.320312 2.246094 93.671875 C 2.246094 92.023438 2.621094 90.152344 3.367188 88.65625 C 4.117188 87.15625 5.316406 85.808594 6.664062 84.835938 C 8.011719 83.863281 9.957031 83.265625 11.382812 82.964844 C 12.503906 82.742188 13.253906 82.816406 14.601562 82.964844 C 16.847656 83.265625 20.515625 84.460938 23.4375 85.511719 C 26.429688 86.558594 29.578125 87.457031 32.347656 89.179688 C 35.265625 90.976562 37.214844 93 40.359375 96.070312 C 45.523438 101.234375 53.835938 110.445312 59.527344 118.234375 C 65.21875 125.945312 67.914062 134.855469 74.503906 142.71875 C 82.367188 152.078125 94.269531 161.738281 105.054688 169.523438 C 115.609375 177.085938 128.863281 184.273438 138.449219 188.917969 C 145.261719 192.210938 150.355469 194.082031 156.570312 196.179688 C 162.859375 198.351562 168.925781 200.222656 175.960938 201.796875 C 183.976562 203.59375 193.410156 205.316406 202.246094 206.140625 C 211.003906 206.964844 222.386719 205.691406 228.675781 206.738281 C 232.347656 207.335938 233.695312 209.285156 237.136719 209.433594 C 242.453125 209.734375 252.339844 206.964844 257.65625 205.164062 C 261.324219 203.96875 263.421875 201.871094 266.492188 201.046875 C 269.484375 200.222656 272.554688 200.824219 275.851562 200.074219 C 279.59375 199.25 284.011719 196.78125 287.753906 195.957031 C 291.050781 195.28125 293.894531 195.804688 297.117188 195.058594 C 300.933594 194.160156 305.128906 191.238281 309.097656 190.339844 C 312.691406 189.515625 316.210938 190.265625 319.652344 189.441406 C 323.097656 188.617188 326.46875 186.371094 329.761719 185.324219 C 332.683594 184.425781 335.304688 183.976562 338.222656 183.300781 C 341.441406 182.550781 345.039062 181.429688 348.332031 181.054688 C 351.476562 180.753906 354.546875 181.804688 357.542969 181.128906 C 360.6875 180.382812 363.457031 177.460938 366.601562 176.636719 C 369.597656 175.8125 372.742188 176.863281 375.738281 176.039062 C 378.882812 175.214844 380.980469 172.894531 384.796875 171.546875 C 390.5625 169.523438 399.847656 167.875 407.410156 166.527344 C 414.972656 165.179688 422.238281 163.683594 430.097656 163.535156 C 438.558594 163.382812 447.695312 164.433594 456.382812 166.230469 C 465.214844 168.101562 473.378906 170.796875 482.589844 174.617188 C 493.746094 179.257812 507.449219 186.96875 518.378906 193.261719 C 527.964844 198.800781 539.347656 207.636719 544.8125 209.882812 C 546.984375 210.78125 548.332031 210.257812 549.753906 211.007812 C 551.25 211.753906 552.75 213.328125 553.574219 214.375 C 554.171875 215.125 554.472656 215.722656 554.769531 216.621094 C 555.21875 217.96875 555.59375 219.992188 555.445312 221.640625 C 555.296875 223.285156 554.320312 225.234375 553.648438 226.429688 C 553.125 227.253906 552.824219 227.703125 552 228.304688 C 550.578125 229.351562 546.609375 232.273438 545.113281 231.449219 C 543.238281 230.398438 541.441406 221.339844 543.390625 219.242188 C 545.710938 216.695312 555.519531 219.84375 561.511719 220.515625 C 567.351562 221.113281 574.089844 221.789062 578.882812 223.0625 C 582.402344 223.960938 586.667969 223.960938 587.792969 226.429688 C 589.4375 230.023438 584.496094 242.304688 580.679688 245.601562 C 577.832031 247.996094 574.539062 247.472656 569.894531 247.921875 C 561.585938 248.746094 546.757812 247.847656 534.851562 247.320312 C 522.574219 246.796875 509.695312 245.449219 497.339844 244.777344 C 485.210938 244.175781 473.378906 243.726562 461.398438 243.503906 C 449.492188 243.277344 440.957031 243.355469 425.605469 243.503906 C 398.125 243.804688 340.09375 245.824219 310.445312 245.972656 C 291.800781 246.050781 280.792969 245.824219 264.917969 245.375 C 247.472656 244.851562 226.429688 243.128906 210.183594 242.90625 C 197.152344 242.753906 183.226562 242.679688 174.988281 243.503906 C 170.421875 243.953125 168.476562 244.925781 164.507812 245.375 C 159.339844 245.972656 151.402344 245.75 146.460938 246.347656 C 143.015625 246.722656 141.59375 247.546875 137.625 247.921875 C 129.839844 248.59375 115.535156 248.371094 102.507812 247.921875 C 86.035156 247.320312 63.269531 244.851562 46.796875 244.101562 C 33.621094 243.503906 19.242188 244.101562 11.304688 243.429688 C 7.261719 243.054688 4.941406 243.203125 2.246094 242.003906 C -0.449219 240.808594 -2.996094 238.785156 -4.792969 236.464844 C -6.664062 233.992188 -8.011719 231.375 -8.6875 227.480469 C -9.808594 221.039062 -8.164062 210.707031 -7.265625 200.746094 C -6.066406 187.867188 -1.574219 166.304688 -1.648438 156.871094 C -1.722656 152.375 -2.847656 150.953125 -3.144531 146.835938 C -3.59375 140.171875 -3.371094 126.917969 -2.769531 120.554688 C -2.472656 116.808594 -1.050781 114.789062 -1.347656 111.792969 C -1.648438 108.5 -4.042969 104.980469 -5.09375 101.535156 C -6.140625 98.164062 -7.414062 93.972656 -7.714844 91.425781 C -7.863281 89.929688 -7.863281 89.179688 -7.636719 87.832031 C -7.339844 86.109375 -6.738281 83.488281 -5.464844 82.066406 C -4.195312 80.644531 -1.871094 79.371094 0.0742188 79.144531 C 2.019531 78.921875 4.566406 79.746094 6.066406 80.644531 C 7.335938 81.390625 8.160156 82.589844 8.835938 83.789062 C 9.433594 84.988281 9.882812 87.832031 9.882812 87.832031 " clip-rule="nonzero"/></clipPath></defs><g clip-path="url(#4f0d63f776)"><g clip-path="url(#89d9d82880)"><rect x="-101.25" width="1215" fill="#ffffff" y="-23.549999" height="282.599992" fill-opacity="1"/></g></g><g clip-path="url(#8853a520a3)"><g clip-path="url(#ef981e178e)"><path fill="#ffffff" d="M -11.679688 76.152344 L 1030.023438 76.152344 L 1030.023438 279.371094 L -11.679688 279.371094 Z M -11.679688 76.152344 " fill-opacity="1" fill-rule="nonzero"/></g></g></svg>